<svg id="Capa_1" data-name="Capa 1" xmlns="http://www.w3.org/2000/svg" viewBox="0 0 841.89 595.28"><defs><style>.cls-1{fill:#b7ff1f;}.cls-2{fill:#fff;}</style></defs><path d="M363.32,275.92l-49.86,112.4H294.68l12.78-28.65-38.9-83.75h19.87l28,63.88,27.06-63.88Z"/><polyline class="cls-1" points="343.4 275.92 363.35 275.88 313.47 388.38 294.38 388.32 343.4 275.89"/><polygon class="cls-2" points="307.19 359.19 268.47 275.85 288.38 275.82 324.55 357.92 307.19 359.19"/><path class="cls-2" d="M266.19,335.5c0,19.1-15.86,27.11-43.28,27.11-24.95,0-44-8.63-44-27.26h19.56c0,8.93,8.78,12.94,26,12.94,16.79,0,22.8-4.16,22.8-10.32,0-9.09-13.71-9.24-34.65-13.09-21.26-4-30.65-8.93-30.65-23.57,0-16.48,15.4-25.41,39.58-25.41,26.33,0,40.5,10.47,40.5,25.72H244.32c0-5.23-5.54-11.7-23.1-11.7-16.48,0-22.18,4.16-22.18,10.47,0,8.32,16.17,9.39,30.8,11.86C253.1,316.25,266.19,319.33,266.19,335.5Z"/><path class="cls-2" d="M458.53,309.55v53.13H439.59V315.25c0-13.86-7.55-21.56-22.48-21.56S394,302.31,394,315.25v47.43H375.06l.17-86.81h18.94L394,293.22c3.85-5.39,14.33-14.93,31.42-14.93C446.83,278.29,458.53,290.45,458.53,309.55Z"/><path class="cls-2" d="M505.89,293.71v37c0,13.86,5.54,17.7,24.79,15.7v14.78a43.53,43.53,0,0,1-10.77,1.4c-24.95,0-33-10.16-33-31.88v-37l-12.18,0V279.27l12.18,0V255h18.94v24.25h24.8v14.48Z"/><path class="cls-2" d="M632.4,325.34H558.48c2.15,14,12.16,23.25,29.41,23.25,16,0,22.79-7.7,25.57-13.55h16.63c-4.16,16.79-20.18,27.57-42.2,27.57-23.41,0-46.51-13.4-46.51-43.28,0-29.41,22.64-43.43,46.2-43.43C613.61,275.9,634.55,291.3,632.4,325.34Zm-16.94-13.86c-2.47-12.94-11.4-21.56-27.88-21.56-15.24,0-25.72,8.62-28.64,21.56Z"/><path class="cls-2" d="M684.75,325.33,667,342V362.6H648V254.79H667V320.4l44.56-44.48h23.72L698.15,313l37,49.59H712.63Z"/><path class="cls-1" d="M179.66,273.16l.11.24"/><path class="cls-1" d="M62.09,360.81c4.72-5.63,10.31-10.44,15.16-15.95,3.89-4.42,7.4-9.06,8.94-14.89,1.28-4.89.61-9.6-1-14.34-6.89-19.86-3.87-38.22,9.2-54.65C109,242.6,135.27,236.08,157,245a48.78,48.78,0,0,1,12.48,7.05l-16,7c-.68.3-1.24,0-1.85-.27-14.77-5.4-28.61-3.45-40.67,6.53-11.9,9.85-16.64,22.94-14.26,38.31a34.08,34.08,0,0,0,9.11,18.21c1.17,1.26.94,1.76-.23,2.75q-21.54,18.3-43,36.68C62.14,361.36,62,361.21,62.09,360.81Z"/><path class="cls-1" d="M153,302.76c6.75,19.92,3.59,38.25-9.59,54.58-14.75,18.28-41.09,24.62-62.75,15.5a48.51,48.51,0,0,1-12.43-7.14l16.08-6.87c.69-.29,1.25.06,1.86.29,14.73,5.5,28.58,3.65,40.71-6.24,12-9.76,16.8-22.82,14.53-38.21a34.08,34.08,0,0,0-9-18.27c-1.17-1.27-.93-1.77.25-2.75l11.25-9.44"/><path class="cls-1" d="M154.84,317.61a85.07,85.07,0,0,0-.67-10.93l-5.27-19.31a21.29,21.29,0,0,1-.6-2.3c-.38-2.89-1.37-7.85-4.1-8.55-1.94-.49-3.94,1.41-4.63,2-4.24,3.65-8.46,7.31-12.7,11Z"/><path class="cls-1" d="M152.64,302.58l-4-12.9c-.2-.84-1.56-7.89-1.79-8.61-.14-2.92-.34-3.42-3-4.35-1.89-.65-4.62,1.77-5.36,2.31-7.08,5.13-13.42,11.39-20.5,16.52Z"/><path class="cls-1" d="M104.37,325.66l42.82-34.81L137,280.16l-41.64,33.7S104.57,325.47,104.37,325.66Z"/></svg>