<svg id="Capa_1" data-name="Capa 1" xmlns="http://www.w3.org/2000/svg" viewBox="0 0 841.89 595.28"><defs><style>.cls-1{fill:#b7ff1f;}.cls-2{fill:#fff;}</style></defs><polyline class="cls-1" points="338.34 258.83 358.29 258.8 308.41 371.3 289.32 371.24 338.34 258.81"/><polygon class="cls-2" points="302.13 341.77 263.41 258.43 283.32 258.4 319.49 340.49 302.13 341.77"/><path class="cls-2" d="M261.13,318.42c0,19.1-15.86,27.11-43.28,27.11-24.95,0-44-8.63-44-27.26h19.56c0,8.93,8.77,12.93,26,12.93,16.79,0,22.8-4.15,22.8-10.31,0-9.09-13.71-9.24-34.66-13.09-21.25-4-30.64-8.94-30.64-23.57,0-16.48,15.4-25.41,39.58-25.41,26.33,0,40.5,10.47,40.5,25.72H239.26c0-5.24-5.54-11.7-23.1-11.7-16.48,0-22.18,4.15-22.18,10.47,0,8.31,16.17,9.39,30.8,11.86C248,299.17,261.13,302.25,261.13,318.42Z"/><path class="cls-2" d="M453.47,292.47V345.6H434.53V298.17c0-13.87-7.55-21.57-22.49-21.57s-23.1,8.63-23.1,21.57V345.6H370l.17-86.81h18.94l-.17,17.35c3.85-5.39,14.33-14.94,31.42-14.94C441.77,261.2,453.47,273.37,453.47,292.47Z"/><path class="cls-2" d="M500.83,276.63v37c0,13.86,5.54,17.7,24.79,15.69v14.79a43.53,43.53,0,0,1-10.77,1.4c-25,0-33-10.16-33-31.88v-37l-12.19,0V262.19l12.19,0V237.9h18.94v24.25h24.8v14.48Z"/><path class="cls-2" d="M682,308.77H608.05c2.16,14,12.17,23.25,29.42,23.25,16,0,22.79-7.7,25.56-13.55h16.64c-4.16,16.79-20.18,27.57-42.2,27.57-23.41,0-46.51-13.4-46.51-43.28,0-29.41,22.64-43.43,46.2-43.43C663.19,259.33,684.13,274.73,682,308.77ZM665,294.91c-2.47-12.94-11.4-21.56-27.88-21.56-15.25,0-25.72,8.62-28.65,21.56Z"/><path class="cls-2" d="M734.33,308.76l-17.71,16.63V346h-19.1V238.22h19.1v65.61l44.56-44.48H784.9l-37.17,37.09,37,49.59H762.21Z"/><path class="cls-1" d="M174.6,256.08a2.56,2.56,0,0,0,.11.24"/><path class="cls-1" d="M57,343.73c4.72-5.63,10.32-10.44,15.17-16,3.88-4.42,7.4-9.06,8.94-14.89,1.28-4.89.61-9.6-1-14.34-6.89-19.86-3.87-38.22,9.2-54.65,14.61-18.38,40.91-24.9,62.63-16A48.7,48.7,0,0,1,164.42,235l-16,7c-.68.3-1.24-.05-1.85-.27-14.77-5.4-28.61-3.45-40.67,6.53C94,258.1,89.22,271.19,91.6,286.56a34,34,0,0,0,9.11,18.21c1.17,1.26.94,1.76-.23,2.75q-21.54,18.3-43,36.68C57.08,344.28,56.92,344.13,57,343.73Z"/><path class="cls-1" d="M147.9,285.68c6.75,19.91,3.59,38.25-9.59,54.58-14.75,18.28-41.09,24.62-62.75,15.5a48.54,48.54,0,0,1-12.43-7.15l16.08-6.86c.69-.29,1.25.06,1.86.28,14.73,5.51,28.58,3.66,40.71-6.23,12-9.77,16.8-22.82,14.53-38.21a34.08,34.08,0,0,0-9-18.27c-1.17-1.27-.93-1.77.25-2.76l11.25-9.43"/><path class="cls-1" d="M149.77,300.52a83.25,83.25,0,0,0-.66-10.92l-5.27-19.31a21.29,21.29,0,0,1-.6-2.3c-.38-2.89-1.38-7.86-4.1-8.55-1.94-.49-3.94,1.4-4.63,2l-12.7,11Z"/><path class="cls-1" d="M147.58,285.49l-4-12.89c-.2-.84-1.56-7.89-1.79-8.62-.14-2.91-.34-3.42-3-4.34-1.89-.65-4.62,1.77-5.36,2.31-7.08,5.13-13.42,11.39-20.5,16.52Z"/><path class="cls-1" d="M99.31,308.58l42.82-34.81-10.24-10.69-41.64,33.7S99.5,308.39,99.31,308.58Z"/><path class="cls-2" d="M556.83,276.62v37c0,13.86,5.53,17.69,24.78,15.69v14.78a43.49,43.49,0,0,1-10.77,1.41c-25,0-33-10.17-33-31.88v-37l-12.18,0V262.18l12.18,0V237.89h19v24.26h24.79v14.47Z"/></svg>